<svg xmlns="http://www.w3.org/2000/svg" viewBox="0 0 567.42 166.63"><title>ComesLogo</title><g id="e9b7c560-4055-4373-bc70-67dfcbad9d5e" data-name="Capa 2"><g id="ffedfff1-bf47-491f-8fc0-6698b0c45b91" data-name="Capa 1"><path d="M183.76,136.32c0-8.74,0-17.48,0-26.22,0-3-.29-3.1-3.05-2.23a3,3,0,0,1-3.23-2c-.73-3.23-1.46-6.45-2.09-9.7-.32-1.7.83-2.76,2.1-3.56,6.67-4.18,16.65-2.24,21,4.21.95,1.41,1.43.65,2.21.11q14.41-9.81,31-4.59a24.66,24.66,0,0,1,11.16,7.38c1.11,1.27,1.62,1.07,2.75,0,9.78-9,21.31-11.45,33.78-7.48,11.46,3.64,17.36,12.41,18.68,24.09,1.08,9.53.23,19.15.42,28.73a11.19,11.19,0,0,0,.32,3.35c.41,1.19,1,1.52,2.23.93a2.54,2.54,0,0,1,3.86,1.9c.64,2.88,1.14,5.81,1.91,8.65a3.44,3.44,0,0,1-1.71,4.11c-9.38,6.32-23.1.3-24.77-10.83a34,34,0,0,1-.38-5.05c0-8.17,0-16.35,0-24.53,0-.56,0-1.13,0-1.69-.22-9-5.83-15.14-13.73-15.12-9.26,0-15.69,6.29-15.73,15.47-.06,13,0,26.08,0,39.12a14.59,14.59,0,0,0,0,1.48c.15,1.37-.38,1.82-1.8,1.8-4.87-.08-9.74-.1-14.62,0-1.65,0-2.12-.41-2.11-2.09.07-13.33.11-26.65,0-40,0-5-1.16-9.68-5.46-13-8.65-6.57-22-1.33-23.74,9.38a28.31,28.31,0,0,0-.36,4.41c0,13,0,26.08,0,39.13,0,1.7-.5,2.12-2.14,2.08-4.73-.1-9.47-.14-14.19,0-2,.06-2.32-.64-2.3-2.41.08-8.67,0-17.34,0-26Z" style="fill:#f59323"/><path d="M495,48.11a86.07,86.07,0,0,0-35-43c-.41-.26-.81-.55-1.3-.89.59-1,1.62-1.14,2.47-1.49C475.06-3,498.43-.9,509.38,20.33c4.33,8.4,6.45,17.4,7.42,26.69a120.71,120.71,0,0,1-3.27,44.81A83.47,83.47,0,0,1,508.79,105c-9.38-12.76-21.86-21.71-34.62-30.33-8.63-5.82-16.85-12.12-23.48-20.24-5.54-6.78-9.22-14.32-8.82-23.36A32.93,32.93,0,0,1,452,8.53c1-1,1.9-.8,3-.24,9.43,4.78,17.06,11.7,23.69,19.8a134.71,134.71,0,0,1,19,31.63c.28.62.93,2.39,1.25,2.87C498.93,60.87,496.69,52.43,495,48.11Z" style="fill:#8bc341"/><path d="M427.91,69.88c11.88.11,22,4.28,30.13,13,2.12,2.3,2.08,3.55-.06,5.76s-4,4.18-6,6.25c-2.17,2.24-3.46,2.19-5.51-.08a25.58,25.58,0,0,0-19.88-8.77,15.49,15.49,0,0,0-9.3,3A7.66,7.66,0,0,0,416.2,101c2.54,2.7,5.93,4,9.24,5.39,6.77,2.81,13.78,5.06,20.26,8.52s11.77,7.89,14.37,14.88c4.83,13-1.16,27-14,32.79-16.69,7.5-40,4-53.25-11-2.35-2.67-2.4-3.71-.11-6.34,2-2.29,4-4.57,6-6.85,1.5-1.7,3.44-1.69,5,0,5.11,5.64,11.15,9.75,18.82,10.93,5,.77,10,.5,14.61-2,6.75-3.74,7.14-11.67.72-15.93-4.09-2.72-8.74-4.23-13.28-6-5.6-2.13-11.25-4.14-16.47-7.16-6.87-4-11.66-9.41-13-17.48A25,25,0,0,1,406,75.86,38.52,38.52,0,0,1,427.91,69.88Z" style="fill:#8bc341"/><path d="M19.16,117.65c0,15.73,9.11,27.74,23.7,30.71,12.33,2.52,22.86-1.12,31.11-10.81a3,3,0,0,1,4.39-.58c3,2.41,6,4.87,9,7.34,1.27,1.05,1.29,2.77,0,4.26A46.86,46.86,0,0,1,60.47,165c-18.81,3.86-35.17-.9-48.39-14.9C4.41,141.94.61,132,.07,120.77-.64,106,4,93.17,15,83.17,27.67,71.55,42.84,67.71,59.75,71A47.7,47.7,0,0,1,87,87c2.07,2.36,1.93,3.68-.48,5.62l-7.25,5.84c-2.7,2.16-3.58,2-5.91-.61-8.33-9.23-18.78-12.61-30.81-10-11.41,2.5-18.81,9.77-22.17,21A26.13,26.13,0,0,0,19.16,117.65Z" style="fill:#f59323"/><path d="M357.79,134.12c-8.69,0-17.38,0-26.07,0-1.75,0-2,.52-1.56,2.09,2.47,8.14,8.14,12.71,16.3,14.15,9.71,1.71,18.32-.74,25.43-7.77a2.61,2.61,0,0,1,3.92-.22c2.53,2.14,5,4.37,7.42,6.62,1.33,1.23,1.12,2.67.1,4a26,26,0,0,1-5.54,5.2c-15,10.62-38.38,11.49-53.81-1a33.68,33.68,0,0,1-12.56-23.85c-1.13-11.8,1.65-22.54,10-31.42A35.07,35.07,0,0,1,343.72,91c11.44-1.31,21.95,1.07,30.78,8.81,7.75,6.79,11.43,15.55,11.88,25.73a40.12,40.12,0,0,1-.19,6.75c-.19,1.46-.82,1.93-2.33,1.92C375.17,134.08,366.48,134.12,357.79,134.12Zm-9-13h16.73c2.5,0,2.5,0,1.78-2.49-2.28-7.84-8.14-12.29-17.09-13-9.29-.72-17.72,5-20.05,13.55-.42,1.52-.14,2,1.47,2C337.36,121.06,343.08,121.11,348.8,121.11Z" style="fill:#f59323"/><path d="M131.49,90.78c18-.12,33,10.32,37.62,26.44,6.62,23-7.09,46.42-33.53,48.84-12.45,1.14-23.69-2-32.63-10.86-10.64-10.6-13.35-23.71-9.32-37.85S107.75,94.88,122,91.57a34,34,0,0,1,4.8-.77C128.37,90.68,129.93,90.78,131.49,90.78ZM110.8,128.56c0,.84-.07,1.69,0,2.53,1,10.45,9.32,19.53,21.54,18.71,10.88-.74,18-7.41,19.32-18.35,2-16.1-10.4-27.31-26.06-23.71C116.66,109.79,110.71,118.34,110.8,128.56Z" style="fill:#f59323"/><path d="M561,5.45c-3.11,2.62-4.77,5.68-4.61,9.55,0,.79-.5,1.1-1,1.51-7.24,6.49-5.24,16.19,4,19.48.5.18,1.24,0,.91,1.12-2.4,8.31-.79,11.9,7.09,15.89a82.17,82.17,0,0,1-11.61,12c-7.69,6.68-16.55,11.77-24.66,17.88-4.21,3.17-8.26,6.55-12.45,10.3-.07-2,.61-3.55.94-5.13,4.11-19.82,4.24-39.56-1.47-59.13a50,50,0,0,0-5.92-13,1.89,1.89,0,0,1,.14-2.7c7.39-8.77,17-12.71,28.27-13A34.18,34.18,0,0,1,561,5.45Z" style="fill:#f59323"/></g></g></svg>