<svg xmlns="http://www.w3.org/2000/svg" viewBox="0 0 816.22 621"><title>experiencia-usuarios-finales</title><g id="abff2d55-d027-46ff-954e-8c8ac109b614" data-name="Capa 2"><g id="bcea27bd-65b3-4a53-b38c-2b990b54d12e" data-name="Capa 1"><path d="M326.61,128.78h-3V47.21A47.21,47.21,0,0,0,276.42,0H103.6A47.21,47.21,0,0,0,56.39,47.21v447.5a47.21,47.21,0,0,0,47.21,47.21H276.42a47.21,47.21,0,0,0,47.21-47.21V186.84h3Z" style="fill:#092d3f"/><path d="M278.33,12.28H255.77a16.76,16.76,0,0,1-15.51,23.08h-99A16.75,16.75,0,0,1,124.5,18.61a17,17,0,0,1,1.24-6.33H104.67A35.26,35.26,0,0,0,69.42,47.54h0V494.38a35.25,35.25,0,0,0,35.25,35.26H278.33a35.25,35.25,0,0,0,35.25-35.26h0V47.54a35.26,35.26,0,0,0-35.25-35.26Z" style="fill:#fff"/><path d="M382,542H1a1,1,0,0,1,0-2H382a1,1,0,0,1,0,2Z" style="fill:#cbcbcb"/><circle id="bd01edab-6eeb-40cc-b400-db24b774ee60" data-name="baf12095-0797-4180-a98d-6422936d747a" cx="191.5" cy="261.23" r="84.45" style="fill:#8ac541"/><path id="b0f4fb7d-7e78-4616-9808-eeafb7463c0b" data-name="b582f34e-fd02-4670-b1d8-d23f069ed737-501" d="M183.13,293.45a8.78,8.78,0,0,1-5.27-1.75l-.09-.07-19.85-15.19a8.82,8.82,0,1,1,10.73-14h0l12.86,9.85,30.38-39.63A8.82,8.82,0,0,1,224.25,231h0l-.19.27.19-.27a8.83,8.83,0,0,1,1.63,12.37L190.15,290a8.84,8.84,0,0,1-7,3.44Z" style="fill:#fff"/><path d="M694.24,550.3a26.71,26.71,0,0,1,3.61-4.6c.57-.58,1.16-1.13,1.77-1.67A28.14,28.14,0,0,1,746,560c4.12-15.25-6.62-30.28-17.41-41.82s-23.14-24.19-23.08-40c0-8.79,4.33-16.64,10.83-22.46l.6-.52a41.11,41.11,0,0,1,28.29-9.86c19.2,1,36,13.94,47.61,29.24,18.74,24.63,27,59.2,13.83,87.23-11.54,24.66-36.15,39.3-61.27,51.07q-5.25,2.48-10.5,4.78l-.07,0-.49.23-2.16.95.33.21,1,.67-1.07-.64c-.1-.07-.22-.13-.32-.19-12.34-7.41-24.84-15.24-33.37-26.79C690,580.17,686.42,563,694.24,550.3Z" style="fill:#8ac541;opacity:0.3"/><path d="M776.55,522.44A69.7,69.7,0,0,1,781.92,542a60.47,60.47,0,0,1-.73,18,77.65,77.65,0,0,1-15.58,33.32,111.25,111.25,0,0,1-20.18,19.62q-5.25,2.48-10.5,4.78l-.07,0-.49.23-2.16.95.33.21,1,.67-1.07-.64c-.1-.07-.22-.13-.32-.19a61.25,61.25,0,0,0-34.33-73.25c.57-.59,1.16-1.14,1.77-1.68a64,64,0,0,1,33.87,37.4,64.67,64.67,0,0,1,1.4,36.18c.62-.4,1.24-.82,1.85-1.23,11.49-7.75,22.08-17.06,30.06-28.47a72.33,72.33,0,0,0,12.82-32.58c1.53-12.84-1.68-25.46-7.41-36.91a151.25,151.25,0,0,0-23.7-33.67,171.56,171.56,0,0,0-31.78-27.32,1.25,1.25,0,0,1-.36-1.67,1.06,1.06,0,0,1,.6-.52.91.91,0,0,1,.78.16c1.44,1,2.87,1.93,4.28,2.93a174,174,0,0,1,31.77,29C762.83,497.9,771.05,509.63,776.55,522.44Z" style="fill:#fff"/><circle id="ba6ea778-8dd3-4a93-9c9d-9dd1a277f382" data-name="ae2e9f9a-ed63-4994-961d-af4fbb6f5199" cx="525.04" cy="21.28" r="17.93" transform="translate(392.55 529.77) rotate(-77.72)" style="fill:#f69223;opacity:0.3"/><circle id="e4c081ae-6278-4ea1-a243-b92f1b34dc90" data-name="b777be60-18da-4893-88a8-55a275d98bc2" cx="748.04" cy="268.28" r="10.93" style="fill:#f69223;opacity:0.3"/><circle id="b56eaa32-36ff-410a-8aaf-2f27e6e45647" data-name="a703acd2-aa23-4bff-9a86-75b7d9a928c1" cx="428.04" cy="298.28" r="10.93" style="fill:#f69223;opacity:0.3"/><path d="M434.22,621h381a1,1,0,0,0,0-2h-381a1,1,0,0,0,0,2Z" style="fill:#cbcbcb"/><path d="M773.17,96.63A14.65,14.65,0,0,0,745,89.21l-30.91,35.44L723.19,150l31.09-41.42a14.55,14.55,0,0,0,18.32-9.43A13.42,13.42,0,0,0,773.17,96.63Z" style="fill:#ffb7b7"/><polygon points="645.01 234.55 747.64 125.02 733.8 103.01 605.08 211.88 645.01 234.55" style="fill:#092d3f"/><circle cx="622.11" cy="132" r="36" style="fill:#2f2e41"/><path d="M625,111.66A75.7,75.7,0,0,1,652.46,93.9c6.64-2.46,13.87-4,20.81-2.58s13.5,6.2,15.44,13c1.58,5.57-.05,11.56-2.51,16.81s-5.74,10.1-7.72,15.53a35.48,35.48,0,0,0,35.69,47.57c-6.82.91-13.11,4.12-19.78,5.82s-14.53,1.59-19.48-3.18c-5.24-5.06-5.35-13.27-5.09-20.55q.55-16.22,1.13-32.44c.19-5.52.35-11.21-1.64-16.36s-6.71-9.65-12.23-9.6c-4.18,0-7.89,2.56-11.24,5.06s-6.9,5.17-11.07,5.54-8.92-2.71-8.61-6.88Z" style="fill:#2f2e41"/><path d="M485.38,373.72a14.65,14.65,0,0,1-11-26.92l31.1-35.29,26.3,5.69-37,36.24a14.57,14.57,0,0,1-7,19.39,14,14,0,0,1-2.41.89Z" style="fill:#ffb7b7"/><polygon points="587.7 247.41 510.18 344.7 486.56 333.86 577.66 192.01 587.7 247.41" style="fill:#092d3f"/><polygon points="525.85 541.21 507.37 540.92 509.6 603.89 525.85 603.89 525.85 541.21" style="fill:#ffb7b7"/><path d="M530,598.58H498A20.39,20.39,0,0,0,477.59,619v.67H530Z" style="fill:#092d3f"/><polygon points="648.16 524.51 627.98 537.47 668.35 586.03 682.03 577.25 648.16 524.51" style="fill:#ffb7b7"/><path d="M682.65,570.55l-26.93,17.29h0A20.4,20.4,0,0,0,649.57,616l.36.56L694,588.27Z" style="fill:#092d3f"/><path d="M655.35,332.24S610.52,183.31,596.1,181.3s-37.62,38.21-37.62,38.21c-30.11,38.41-61.15,162.82-61.15,162.82s51.75,3.24,89.58,23.37,82.46-1,82.46-1Z" style="fill:#092d3f"/><path d="M655.35,332.24S610.52,183.31,596.1,181.3s-31.73,38.62-31.73,38.62c-15,62-67,162.41-67,162.41s51.75,3.24,89.58,23.37,82.46-1,82.46-1Z" style="opacity:0.10000000149011612;isolation:isolate"/><polygon points="618.57 287.68 618.57 362.52 627.37 470.92 671.37 552.92 650.37 567.92 590.37 489.92 566.64 412.47 529.37 583.92 501.37 581.92 520.82 344.21 557.72 277.3 618.57 287.68" style="fill:#24414c"/><path d="M573.36,215.3c-14,14-1,29-1,29l-16,36,63,17,22-98.38-15-16c-30-1-30-1.62-30-1.62C591.1,186.44,573.36,215.3,573.36,215.3Z" style="fill:#f69223"/><path d="M643.91,188.73a26.88,26.88,0,0,0-37.59,5.66l-.19.25c-15.83,22.05-30.48,57.66-10.3,102.07,32.4,71.31,60.59,107.82,72,107.81a4.4,4.4,0,0,0,1.48-.23c7-2.39,17.25-14.33,19.1-24.85.66-3.76.5-9-4-12.61-12.94-10.35-36.16-42.56-43.4-85-4-23.42,3.76-44.77,11-58.55A26.87,26.87,0,0,0,644.26,189h0Z" style="fill:#092d3f"/><circle cx="611.25" cy="141.21" r="26.5" style="fill:#ffb7b7"/><path d="M574,139.21h38.27l.39-5.5,2,5.5h5.89l.78-10.89,3.89,10.89h11.4v-.54A28.62,28.62,0,0,0,608,110.08h-5.4A28.62,28.62,0,0,0,574,138.67Z" style="fill:#2f2e41"/><path d="M630.78,159l16.33-5.29V114H616.26l.77.76C627.65,125.37,639.47,163,630.78,159Z" style="fill:#2f2e41"/></g></g></svg>