<svg xmlns="http://www.w3.org/2000/svg" viewBox="0 0 746.99 673.68"><title>optimiza-tiempo</title><g id="a15c8858-3b96-4882-93dd-7e7ca7c872d3" data-name="Capa 2"><g id="f4f5dda8-cb04-4c39-96a9-d80471676003" data-name="Capa 1"><circle cx="465.72" cy="244.25" r="36.4" style="fill:#2f2e41"/><path d="M475.86,208.86a36.41,36.41,0,0,1,32,53.67,36.39,36.39,0,1,0-56.85-45.44,37.29,37.29,0,0,0-3.61,5.45A36.32,36.32,0,0,1,475.86,208.86Z" style="fill:#2f2e41"/><circle cx="397.71" cy="137.26" r="106.91" style="fill:#2f2e41"/><path d="M313.8,70.93A106.89,106.89,0,0,1,462,59.72c-.88-.83-1.74-1.67-2.65-2.48A106.91,106.91,0,0,0,317.25,217.05c.91.81,1.84,1.57,2.77,2.34A106.9,106.9,0,0,1,313.8,70.93Z" style="fill:#2f2e41"/><circle cx="396.8" cy="174.41" r="68.86" style="fill:#ffb8b8"/><path d="M432,262l-73.69,3.31s6.15,38.11-33.72,41.74-76.1-7.25-90.6,19.93-8.25,124-8.25,124,27.18,97.85,48.93,112.34,212-5.43,212-5.43l79.63-100.55-2.7-77.54c-1.41-40.49-38.37-70.89-78.19-63.39-.78.14-1.57.3-2.36.47-1.19.26-8.75-6.54-32.75-18.54C435.61,290.94,432,262,432,262Z" style="fill:#7fb236"/><path d="M272,305.19s17.52,31.78,10.27,77.08,23.16,141.12,23.16,141.12L327.2,518s-14.5-94.23-10.87-116,4.62-85.91-13.5-96.79S272,305.19,272,305.19Z" style="fill:#f69223"/><path d="M481.76,321.86l7.62,200.62,14.5,9.06s20.83-220.16,10-220.16H491.72a10,10,0,0,0-10,10h0C481.75,321.52,481.75,321.69,481.76,321.86Z" style="fill:#f69223"/><circle cx="315.42" cy="509.8" r="9.06" style="fill:#63ff7e"/><circle cx="496.63" cy="518.86" r="9.06" style="fill:#63ff7e"/><polygon points="337.91 88.33 337.91 157.19 353.86 157.19 374.15 135.45 371.43 157.19 441.92 157.19 437.57 135.45 446.27 157.19 457.51 157.19 457.51 88.33 337.91 88.33" style="fill:#2f2e41"/><ellipse cx="327.04" cy="159.91" rx="5.44" ry="9.97" style="fill:#ffb8b8"/><ellipse cx="466.57" cy="159.91" rx="5.44" ry="9.97" style="fill:#ffb8b8"/><path d="M617.39,638.71v6.07a13.49,13.49,0,0,1-.91,4.87,13.66,13.66,0,0,1-1,2A13.44,13.44,0,0,1,604,658.21H157.41a13.43,13.43,0,0,1-11.55-6.56,13.66,13.66,0,0,1-1-2,13.28,13.28,0,0,1-.91-4.87v-6.07a13.43,13.43,0,0,1,13.42-13.43h25.75v-2.83a.56.56,0,0,1,.56-.56h13.43a.56.56,0,0,1,.56.56v2.83h8.39v-2.83a.56.56,0,0,1,.56-.56h13.43a.56.56,0,0,1,.56.56v2.83H229v-2.83a.56.56,0,0,1,.56-.56H243a.56.56,0,0,1,.56.56v2.83H252v-2.83a.56.56,0,0,1,.56-.56H266a.56.56,0,0,1,.56.56v2.83h8.39v-2.83a.56.56,0,0,1,.56-.56h13.43a.56.56,0,0,1,.56.56v2.83h8.4v-2.83a.56.56,0,0,1,.56-.56h13.43a.56.56,0,0,1,.56.56v2.83h8.39v-2.83a.56.56,0,0,1,.56-.56h105.2a.56.56,0,0,1,.56.56h0v2.83h8.4v-2.83a.56.56,0,0,1,.56-.56h13.43a.56.56,0,0,1,.56.56v2.83h8.39v-2.83a.56.56,0,0,1,.56-.56h13.43a.56.56,0,0,1,.56.56h0v2.83h8.39v-2.83a.56.56,0,0,1,.56-.56H495.4a.56.56,0,0,1,.56.56h0v2.83h8.4v-2.83a.56.56,0,0,1,.56-.56h13.43a.56.56,0,0,1,.55.56v2.83h8.4v-2.83a.56.56,0,0,1,.56-.56h13.43a.56.56,0,0,1,.56.56h0v2.83h8.39v-2.83a.56.56,0,0,1,.56-.56h13.43a.56.56,0,0,1,.56.56h0v2.83H604a13.43,13.43,0,0,1,13.43,13.42Z" style="fill:#3f3d56"/><rect x="14.24" y="656.65" width="732.75" height="2" style="fill:#3f3d56"/><path d="M581.43,383.08h-409a11.26,11.26,0,0,0-11.26,11.26h0V622.25a11.26,11.26,0,0,0,11.26,11.26h409a11.26,11.26,0,0,0,11.26-11.26V394.34a11.26,11.26,0,0,0-11.26-11.26Z" style="fill:#3f3d56"/><circle cx="377.24" cy="462.65" r="25" style="fill:#8ac541"/><rect x="68.45" y="645.68" width="28" height="28" style="fill:#f69223"/><path d="M79.45,623.68v34h34v-34ZM112,656.2h-31v-31H112Z" style="fill:#3f3d56"/><rect x="642.45" y="645.68" width="28" height="28" style="fill:#f69223"/><path d="M653.45,623.68v34h34v-34ZM686,656.2H654.92v-31H686Z" style="fill:#3f3d56"/><circle cx="94.58" cy="132.23" r="79.34" style="fill:#8ac541"/><path d="M122.23,38a86.11,86.11,0,0,0-21.64,0A84.36,84.36,0,0,0,31,96.66a83.42,83.42,0,0,0-3.66,21.67c0,1-.06,2-.06,3.08a84.23,84.23,0,0,0,84.15,84.15c1.79,0,3.58-.06,5.35-.16A84.16,84.16,0,0,0,122.23,38Zm15.52,160.86h0a81.19,81.19,0,0,1-21,4.17c-1.77.12-3.56.18-5.35.18a81.84,81.84,0,0,1-81.74-81.75c0-1,0-2.06.06-3.08a81.74,81.74,0,1,1,108,80.48Z" style="fill:#3f3d56"/><rect x="110.21" y="44.48" width="2.4" height="16.83" style="fill:#3f3d56"/><rect x="61.76" y="64.55" width="2.4" height="16.83" transform="translate(-33.15 65.89) rotate(-45)" style="fill:#3f3d56"/><rect x="34.47" y="120.21" width="16.83" height="2.4" style="fill:#3f3d56"/><rect x="54.54" y="168.66" width="16.83" height="2.4" transform="translate(-101.67 94.27) rotate(-45)" style="fill:#3f3d56"/><rect x="151.45" y="71.76" width="16.83" height="2.4" transform="translate(-4.77 134.41) rotate(-45)" style="fill:#3f3d56"/><rect x="171.52" y="120.21" width="16.83" height="2.4" style="fill:#3f3d56"/><rect x="158.66" y="161.45" width="2.4" height="16.83" transform="translate(-73.29 162.79) rotate(-45)" style="fill:#3f3d56"/><rect x="110.21" y="181.52" width="2.4" height="16.83" style="fill:#3f3d56"/><path d="M115,116.61a6,6,0,0,0-7.22,0,6.2,6.2,0,0,0-1.72,2,6,6,0,1,0,8.94-2ZM111.41,125a3.62,3.62,0,0,1-3.61-3.61,3.73,3.73,0,0,1,.64-2,3.6,3.6,0,1,1,3,5.65Z" style="fill:#3f3d56"/><rect x="100.59" y="16.83" width="21.64" height="21.64" style="fill:#3f3d56"/><ellipse cx="111.41" cy="10.22" rx="28.85" ry="10.22" style="fill:#3f3d56"/><rect x="107.8" y="75.73" width="7.21" height="40.87" style="fill:#3f3d56"/><rect y="201.9" width="226" height="2.4" style="fill:#3f3d56"/><path d="M138.59,584.22c.94,31.95-17.73,43.65-41.16,44.34l-1.62,0c-1.09,0-2.17,0-3.23-.06-21.19-.88-38-12.12-38.83-41.84C52.85,555.94,91,516,93.88,513h0l.16-.17S137.66,552.27,138.59,584.22Z" style="fill:#8ac541"/><path d="M95.74,623.72l14.89-22.14L95.77,626.1l0,2.49c-1.09,0-2.17,0-3.23-.06l.74-32,0-.25,0,0,.07-3L77.1,569.54l16.27,21.4.06.64L94,567.39,79.91,542.86,94,563.14,93.88,513v0l.93,39.49,12.83-16L94.86,555.93l.28,21.63L107,556.45,95.19,580.74l.15,12,17.17-29.41L95.4,597Z" style="fill:#3f3d56"/><path d="M712.59,584.22c.94,31.95-17.73,43.65-41.16,44.34l-1.62,0c-1.09,0-2.17,0-3.23-.06-21.19-.88-38-12.12-38.83-41.84C626.85,555.94,665,516,667.88,513h0l.16-.17S711.66,552.27,712.59,584.22Z" style="fill:#8ac541"/><path d="M669.74,623.72l14.89-22.14L669.77,626.1l0,2.49c-1.09,0-2.17,0-3.23-.06l.74-32,0-.25,0,0,.07-3L651.1,569.54l16.27,21.4.06.64.56-24.19-14.08-24.53L668,563.14,667.88,513v0l.93,39.49,12.83-16-12.79,19.45.28,21.63L681,556.45l-11.76,24.29.15,12,17.17-29.41L669.4,597Z" style="fill:#3f3d56"/></g></g></svg>