<svg xmlns="http://www.w3.org/2000/svg" viewBox="0 0 185.24 140.54"><title>Recurso 6</title><g id="f6648fdc-e0fe-4e6c-abb3-3210b47864c3" data-name="Capa 2"><g id="f08a4f5e-1389-4a29-beba-27fef88262d6" data-name="Capa 1"><path d="M185.24,0c-29.73,35.08-35.44,89.6-52.57,103.26a40.52,40.52,0,0,1-7.37,4.68c-.79.4-1.59.76-2.38,1.09q-.77.31-1.53.6l-1.41.49c-.41.14-.81.26-1.2.38-1.26.37-2.5.68-3.71.92-.56.12-1.11.22-1.66.31a47.87,47.87,0,0,1-7.68.62c-1.77,0-3.38-.1-4.78-.24-.47,0-.91-.09-1.33-.15-1.12-.14-2.06-.3-2.78-.44l-.72-.15c-.63-.14-1-.24-1-.24s9.22-25.3,19.53-44.42c19.95-35.69,47.13-52.84,48-53.37-.64.21-21.47,7.5-45.45,40.32C92.83,87,81,140.54,81,140.54c-21.19-46-48-56.89-48.84-57.22,18.38,11.49,37,44.15,37,44.15-1.33.07-2.62.1-3.89.1a63.14,63.14,0,0,1-19.62-2.95c-1.08-.35-2.13-.73-3.17-1.14h0c-1-.4-2-.84-3-1.3h0c-1-.46-1.94-.94-2.87-1.44-.63-.34-1.25-.69-1.86-1l-1.77-1.1q-2.19-1.42-4.2-3c-.8-.63-1.57-1.27-2.33-1.93-1-.89-2-1.8-2.93-2.73a66.24,66.24,0,0,1-6.92-8.17c-.75-1-1.46-2.08-2.14-3.14-.34-.52-.68-1-1-1.59s-.64-1.06-1-1.59c-.15-.27-.3-.54-.46-.81-.3-.53-.59-1.07-.88-1.61A104.61,104.61,0,0,1,0,58.92c25.55,1.64,46.74,4.66,60.35,17.5,14.14,13.33,16,18.24,16,18.24.39-52.31,29.05-70.89,56.94-83.25C158.44.26,185.24,0,185.24,0Z" style="fill:#fff"/></g></g></svg>